<svg xmlns="http://www.w3.org/2000/svg" data-name="Layer 1" viewBox="0 0 111.81 19.73"><defs><mask id="a" width="11.02" height="19.73" x="100.79" y="0" maskUnits="userSpaceOnUse"><path fill="#fff" d="M100.79.27h11.02V20h-11.02V.27z" transform="translate(0 -.27)"/></mask><mask id="b" width="11.02" height="19.73" x="45.7" y="0" maskUnits="userSpaceOnUse"><path fill="#fff" d="M45.7 20h11.02V.27H45.7V20z" transform="translate(0 -.27)"/></mask><mask id="c" width="111.81" height="19.73" x="0" y="0" maskUnits="userSpaceOnUse"><path fill="#fff" d="M0 20h111.81V.27H0V20z" transform="translate(0 -.27)"/></mask></defs><g data-name="Page-1 01"><g mask="url(#a)"><path fill="#4c4644" d="M108.48 15.14a3.72 3.72 0 0 0-.3-1.69c-.9-1.63-2.69-2.45-4.28-3.49s-3.12-2.43-3.11-5.11a5.41 5.41 0 0 1 1.4-3.63 5.7 5.7 0 0 1 4-1.22h.12c2 0 3.44.46 4.27 1.38a6.42 6.42 0 0 1 1.23 4.35v1h-3.26v-1a6.07 6.07 0 0 0-.44-2.84 2 2 0 0 0-1.8-.95c-1.65 0-2.18 1.25-2.18 2.64a3.72 3.72 0 0 0 .3 1.69c.81 1.47 2.43 2.25 3.95 3.23 1.79 1.15 3.45 2.56 3.44 5.38a5.41 5.41 0 0 1-1.4 3.63 5.71 5.71 0 0 1-4 1.22h-.12c-2 0-3.44-.46-4.27-1.38a6.42 6.42 0 0 1-1.24-4.37v-1h3.26v1a6.06 6.06 0 0 0 .44 2.84 2 2 0 0 0 1.8.95c1.65 0 2.18-1.25 2.18-2.64"/></g><path fill="#4c4644" d="M89.78.15h3.26v17.28h5.3v2.14H89.78V.15zM76.72 2.29V.15h8.57v2.14h-5.31v6.5h5.31v2.14h-5.31v6.5h5.31v2.14h-8.57V2.29zM69 3.56v12.62a1.66 1.66 0 0 1-1.69 1.61h-2.83V1.95h2.79A1.66 1.66 0 0 1 69 3.56zm3.26 6.31V5.43a5.64 5.64 0 0 0-1.17-3.9C70.24.61 68.74.16 66.57.16h-5.36v19.41h5.36c2.18 0 3.68-.46 4.49-1.37a5.64 5.64 0 0 0 1.17-3.9z"/><g mask="url(#b)"><path fill="#4c4644" d="M49 9.87V14a6.07 6.07 0 0 0 .44 2.84 2.19 2.19 0 0 0 3.6 0 6.07 6.07 0 0 0 .44-2.84V5.73A6.07 6.07 0 0 0 53 2.89a2.19 2.19 0 0 0-3.6 0 6.07 6.07 0 0 0-.4 2.84zm2.21 9.86c-2 0-3.44-.46-4.27-1.38a6.42 6.42 0 0 1-1.24-4.37V5.73a6.42 6.42 0 0 1 1.24-4.38C47.78.47 49.19.01 51.21 0s3.44.46 4.27 1.38a6.42 6.42 0 0 1 1.24 4.35v8.21a6.42 6.42 0 0 1-1.24 4.37c-.83.92-2.25 1.38-4.27 1.38z"/></g><path fill="#4c4644" d="M37.13.15h4.09v19.42h-2.98V5.3l-3.73 14.23H31.6L27.87 5.3v14.27h-2.98V.15h4.08l4.08 15.58L37.13.15zM17.43.15h2.97v19.42h-2.85l-6-13.21v13.21H8.57V.15h2.86l6 13.21V.15z"/><g mask="url(#c)"><path fill="#4c4644" d="M0 19.57h3.27V.15H0v19.42z"/></g></g></svg>