<svg xmlns="http://www.w3.org/2000/svg" viewBox="0 0 111.81 19.81"><title>Asset 1</title><g id="Layer_2" data-name="Layer 2"><g id="Layer_1-2" data-name="Layer 1"><path d="M108.5,15.21a4.67,4.67,0,0,0-.3-1.7c-.9-1.7-2.7-2.5-4.3-3.5a5.67,5.67,0,0,1-3.1-5.1,5.43,5.43,0,0,1,1.4-3.6,5.26,5.26,0,0,1,4-1.3h.1a5.84,5.84,0,0,1,4.3,1.4,6.68,6.68,0,0,1,1.2,4.4v1h-3.3v-1a6.58,6.58,0,0,0-.4-2.8,2.23,2.23,0,0,0-1.8-1c-1.7,0-2.2,1.2-2.2,2.6a4.67,4.67,0,0,0,.3,1.7c.8,1.5,2.4,2.2,4,3.2,1.7,1.2,3.4,2.6,3.4,5.4a5.43,5.43,0,0,1-1.4,3.6,5.76,5.76,0,0,1-4,1.2h-.1a5.84,5.84,0,0,1-4.3-1.4,6.29,6.29,0,0,1-1.2-4.4v-1H104v1a6.58,6.58,0,0,0,.4,2.8,2.23,2.23,0,0,0,1.8,1c1.7.1,2.2-1.1,2.3-2.5M89.8.21h3.3v17.3h5.3v2.1H89.8ZM76.7,2.31V.21h8.6v2.1H80v6.5h5.3V11H80v6.5h5.3v2.1H76.7ZM71,18.21a5.51,5.51,0,0,0,1.2-3.9V5.51A5.51,5.51,0,0,0,71,1.61,6.21,6.21,0,0,0,66.5.21H61.1v19.4h5.4C68.7,19.61,70.2,19.11,71,18.21Zm-6.5-.4V2h2.8A1.67,1.67,0,0,1,69,3.61v12.6a1.67,1.67,0,0,1-1.7,1.6Zm-9,.6A6.29,6.29,0,0,0,56.7,14V5.71a6.4,6.4,0,0,0-1.2-4.3A5.84,5.84,0,0,0,51.2,0a5.84,5.84,0,0,0-4.3,1.4,6.29,6.29,0,0,0-1.2,4.4V14a6.84,6.84,0,0,0,1.2,4.4c.8.9,2.3,1.4,4.3,1.4A5.84,5.84,0,0,0,55.5,18.41Zm-6.1-1.6A5.48,5.48,0,0,1,49,14V5.81A5.33,5.33,0,0,1,49.4,3a1.7,1.7,0,0,1,.6-.6A2.11,2.11,0,0,1,53,3a5.57,5.57,0,0,1,.5,2.8V14a6.58,6.58,0,0,1-.4,2.8,1.7,1.7,0,0,1-.6.6A2.25,2.25,0,0,1,49.4,16.81ZM37.1.21h4.1v19.4h-3V5.31l-3.7,14.2H31.6L27.8,5.31v14.3h-3V.21h4.1L33,15.81ZM17.4.21h3v19.4H17.6l-6-13.2v13.2h-3V.21h2.8l6,13.2ZM0,19.61H3.3V.21H0Z"/></g></g></svg>