<svg xmlns="http://www.w3.org/2000/svg" viewBox="0 0 112.02 20.03">
    <g data-name="Layer 2">
        <path fill="#4c4644" d="M108.67 15.38a3.82 3.82 0 0 0-.29-1.72c-.89-1.64-2.7-2.47-4.28-3.53a5.9 5.9 0 0 1-3.1-5.19 5.39 5.39 0 0 1 1.41-3.67 5.65 5.65 0 0 1 4-1.25h.11c2 0 3.42.47 4.25 1.39A6.59 6.59 0 0 1 112 5.85v1h-3.24v-1a6.46 6.46 0 0 0-.43-2.85 2 2 0 0 0-1.81-1c-1.64 0-2.18 1.28-2.18 2.69a3.82 3.82 0 0 0 .29 1.72c.79 1.51 2.37 2.29 3.92 3.29 1.78 1.17 3.45 2.58 3.45 5.44a5.39 5.39 0 0 1-1.41 3.67 5.65 5.65 0 0 1-4 1.25h-.11c-2 0-3.42-.47-4.25-1.39a6.59 6.59 0 0 1-1.23-4.48v-1h3.24v1a6.46 6.46 0 0 0 .43 2.89 2 2 0 0 0 1.81 1c1.67-.08 2.19-1.31 2.19-2.7zM92 0h3.06v17.8H100V20h-8zM79 2.22V0h8v2.2h-5v6.7h5v2.2h-5v6.7h5V20h-8zM74 10V5.47a5.63 5.63 0 0 0-1.28-4C71.84.5 70.18 0 67.83 0H62v20h5.83c2.38 0 4-.48 4.89-1.41a5.59 5.59 0 0 0 1.28-4zm-3.54-6.5v13a1.77 1.77 0 0 1-1.85 1.67h-3V1.88h3a1.77 1.77 0 0 1 1.85 1.67zm-23.11 15C46.44 17.57 46 16 46 13.9V6.15c0-2.13.44-3.68 1.35-4.67S49.8 0 52 0s3.74.5 4.65 1.46S58 4 58 6.15v7.75a6.75 6.75 0 0 1-1.35 4.67C55.74 19.57 54.2 20 52 20s-3.74-.5-4.65-1.46zm2.2-8v3.4a6.56 6.56 0 0 0 .47 3 2.43 2.43 0 0 0 4 0 6.48 6.48 0 0 0 .47-3V6.12a6.55 6.55 0 0 0-.47-3 2.43 2.43 0 0 0-4 0 6.48 6.48 0 0 0-.47 3zM37.74 0H42v20h-3.12V5.33L35 20h-3L28.09 5.33V20H25V0h4.26l4.23 16zM17 0h3v20h-2.89L11 6.4V20H8V0h2.89L17 13.64zM0 0h3v20H0z" data-name="Layer 1"/>
    </g>
</svg>
