<svg data-name="Layer 1" xmlns="http://www.w3.org/2000/svg" viewBox="0 0 20 112">
    <title>
        logo
    </title>
    <path d="M15.36 3.33a3.82 3.82 0 0 0-1.72.29c-1.64.89-2.47 2.7-3.53 4.28S7.64 11 4.92 11a5.39 5.39 0 0 1-3.67-1.41A5.65 5.65 0 0 1 0 5.6v-.11c0-2 .47-3.42 1.39-4.25A6.59 6.59 0 0 1 5.83 0h1v3.24h-1a6.46 6.46 0 0 0-2.89.43 2 2 0 0 0-1 1.81c0 1.64 1.28 2.18 2.69 2.18a3.82 3.82 0 0 0 1.72-.29C7.86 6.58 8.64 5 9.64 3.45 10.81 1.67 12.22 0 15.08 0a5.39 5.39 0 0 1 3.67 1.41A5.65 5.65 0 0 1 20 5.4v.11c0 2-.47 3.42-1.39 4.25A6.59 6.59 0 0 1 14.17 11h-1V7.76h1a6.46 6.46 0 0 0 2.89-.43 2 2 0 0 0 1-1.81c-.06-1.67-1.31-2.19-2.7-2.19zM0 20v-3.06h17.8V12H20v8H0zm2.2 13H0v-8h2.2v5h6.7v-5h2.2v5h6.7v-5H20v8H2.2zm7.8 5H5.45a5.63 5.63 0 0 0-4 1.28C.48 40.16 0 41.82 0 44.17V50h20v-5.83c0-2.38-.48-4-1.41-4.89a5.59 5.59 0 0 0-4-1.28zm-6.5 3.54h13a1.77 1.77 0 0 1 1.67 1.85v3H1.86v-3a1.77 1.77 0 0 1 1.67-1.85zm15 23.11c-.95.91-2.5 1.35-4.62 1.35H6.13c-2.13 0-3.68-.44-4.67-1.35S0 62.2 0 60s.5-3.74 1.46-4.65S4 54 6.13 54h7.75c2.13 0 3.67.44 4.67 1.35S20 57.8 20 60s-.5 3.74-1.46 4.65zm-8-2.2h3.4a6.56 6.56 0 0 0 3-.47 2.43 2.43 0 0 0 0-4 6.48 6.48 0 0 0-3-.47H6.1a6.55 6.55 0 0 0-3 .47 2.43 2.43 0 0 0 0 4 6.48 6.48 0 0 0 3 .47zM0 74.26V70h20v3.12H5.31L20 77v3L5.31 83.91H20V87H0v-4.26l16-4.23zM0 95v-3h20v2.89L6.38 101H20v3H0v-2.89L13.62 95zm0 17v-3h20v3z" fill="#4c4644"/>
</svg>
